<?xml version="1.0" standalone="no"?>
<!DOCTYPE svg PUBLIC "-//W3C//DTD SVG 20010904//EN"
 "http://www.w3.org/TR/2001/REC-SVG-20010904/DTD/svg10.dtd">
<svg version="1.0" xmlns="http://www.w3.org/2000/svg"
 width="612.000000pt" height="612.000000pt" viewBox="0 0 612.000000 612.000000"
 preserveAspectRatio="xMidYMid meet">
<metadata>
Created by potrace 1.14, written by Peter Selinger 2001-2017
</metadata>
<g transform="translate(0.000000,612.000000) scale(0.100000,-0.100000)"
fill="#000000" stroke="none">
<path d="M3283 4355 c-99 -42 -145 -69 -135 -80 4 -4 -1 -5 -10 -2 -21 8 -34
-9 -13 -17 13 -5 13 -9 3 -26 -10 -16 -19 -19 -46 -14 -36 7 -64 -9 -55 -32 3
-8 25 -23 48 -33 78 -35 94 -97 36 -142 -21 -17 -36 -20 -74 -16 -27 2 -56 12
-65 21 -15 14 -15 18 -1 31 14 14 19 14 48 -1 42 -21 83 -7 74 25 -6 25 -17
33 -63 51 -19 8 -38 19 -42 24 -5 7 -13 -3 -20 -21 -7 -18 -16 -33 -20 -33 -4
0 -8 -22 -8 -49 0 -36 -4 -51 -16 -55 -15 -6 -15 -8 1 -26 10 -11 13 -20 7
-20 -6 0 -13 6 -15 13 -3 6 -6 0 -6 -15 -1 -23 3 -28 23 -28 27 0 41 -24 26
-48 -8 -14 -9 -12 -10 11 0 20 -5 27 -20 27 -13 0 -20 -7 -20 -20 0 -11 7 -20
15 -20 8 0 15 -4 15 -10 0 -5 -8 -6 -17 -3 -13 5 -15 3 -9 -13 4 -10 9 -30 11
-44 8 -56 153 -422 178 -446 8 -8 61 93 87 166 30 82 43 103 100 165 26 28 59
78 73 111 30 69 31 74 17 74 -5 0 -10 -9 -10 -20 0 -28 -15 -25 -16 3 -1 12
-5 32 -9 45 -5 14 -3 22 4 22 5 0 8 -6 5 -14 -3 -8 -1 -17 5 -21 7 -3 11 2 11
15 0 11 7 23 15 26 22 9 18 23 -4 17 -10 -3 -22 0 -25 6 -4 6 0 11 8 11 19 0
21 16 4 23 -8 3 -6 6 5 6 14 1 11 6 -13 29 -27 25 -62 121 -39 106 5 -3 9 1 9
10 0 8 3 22 7 32 5 12 3 15 -6 9 -10 -6 -11 -2 -6 15 4 13 3 20 -2 17 -5 -3
-15 16 -22 43 -9 35 -18 50 -29 50 -11 0 -5 8 16 22 20 12 31 26 28 34 -3 8 0
14 7 14 7 0 22 7 33 15 27 21 19 18 -73 -20z m-33 -150 c0 -21 5 -25 30 -25
23 0 30 -4 30 -20 0 -16 -7 -20 -31 -20 l-30 0 3 -52 c3 -46 6 -53 26 -56 35
-5 30 -42 -6 -42 -48 0 -70 28 -73 93 -2 55 -3 57 -31 57 -21 0 -28 5 -28 20
0 16 7 20 30 20 25 0 30 4 30 25 0 20 5 25 25 25 20 0 25 -5 25 -25z m-190 1
c0 -2 -7 -7 -16 -10 -8 -3 -12 -2 -9 4 6 10 25 14 25 6z m97 -282 c-3 -3 -12
-4 -19 -1 -8 3 -5 6 6 6 11 1 17 -2 13 -5z m155 -44 c-6 -43 -12 -37 -12 13 0
25 4 37 8 29 5 -7 7 -26 4 -42z m-293 -14 c-16 -45 -23 -45 -26 -3 -2 24 0 28
7 17 8 -12 11 -11 16 8 4 12 9 21 11 18 3 -2 -1 -21 -8 -40z m68 22 c-3 -8 -6
-5 -6 6 -1 11 2 17 5 13 3 -3 4 -12 1 -19z m185 -8 c-2 -16 -6 -30 -8 -30 -2
0 -4 14 -4 30 0 17 4 30 8 30 5 0 7 -13 4 -30z m-115 -15 c1 -14 0 -15 -3 -3
-3 9 -15 19 -27 22 -18 4 -18 4 3 3 17 -1 25 -8 27 -22z m37 -1 c3 -8 2 -12
-4 -9 -6 3 -10 10 -10 16 0 14 7 11 14 -7z"/>
<path d="M4195 4363 c-16 -3 -33 -10 -37 -16 -5 -8 -10 -7 -21 1 -11 9 -19 7
-37 -13 -19 -20 -26 -22 -38 -13 -11 10 -17 9 -27 -5 -7 -9 -17 -17 -24 -17
-6 0 -11 -4 -11 -10 0 -5 -7 -10 -15 -10 -8 0 -15 -4 -15 -10 0 -5 -13 -10
-30 -10 -20 0 -30 -5 -30 -15 0 -8 -7 -15 -15 -15 -8 0 -23 -10 -35 -22 -11
-12 -20 -16 -20 -10 0 7 -5 12 -11 12 -5 0 -7 -5 -3 -12 5 -8 2 -9 -9 -5 -14
5 -17 -1 -17 -35 l0 -41 27 24 c16 13 29 27 31 32 5 11 62 9 62 -3 0 -5 -4
-10 -8 -10 -15 0 -82 -70 -82 -86 0 -9 -5 -12 -12 -8 -21 13 -48 11 -48 -3 0
-7 -4 -13 -10 -13 -5 0 -10 17 -10 38 l0 37 -25 -30 c-16 -19 -23 -38 -20 -52
4 -16 -1 -26 -17 -34 -22 -12 -22 -11 -9 7 24 33 -72 -69 -104 -110 -16 -21
-34 -44 -40 -50 -5 -6 -28 -34 -49 -61 -21 -28 -48 -58 -58 -67 -19 -17 -19
-18 13 -48 19 -16 31 -30 27 -30 -3 0 20 -27 52 -59 33 -33 66 -71 76 -85 9
-15 21 -26 28 -26 19 -1 69 -58 60 -71 -4 -8 -3 -10 5 -5 14 9 164 -140 156
-155 -4 -5 -2 -8 3 -7 14 5 297 -272 322 -315 17 -29 25 -35 32 -25 7 9 8 7 4
-7 -7 -24 59 -204 67 -184 4 8 4 2 1 -13 -4 -16 1 -58 9 -95 9 -38 24 -106 33
-152 19 -92 25 -100 107 -150 31 -18 62 -40 68 -48 7 -8 27 -20 46 -28 18 -8
60 -35 93 -60 71 -54 120 -67 151 -39 35 31 40 50 48 181 7 106 12 129 27 141
18 13 18 14 -4 7 -16 -5 -22 -3 -20 7 2 7 -5 12 -14 12 -10 -1 -15 2 -12 7 3
5 1 9 -4 9 -5 0 -9 14 -9 30 0 28 3 30 41 31 28 1 34 3 21 7 -20 7 -33 32 -16
32 5 0 8 11 7 24 -1 23 -4 25 -41 20 -46 -6 -64 3 -70 34 -3 19 -1 20 21 10
18 -8 31 -8 50 1 15 6 35 9 45 6 26 -9 24 9 -3 28 -20 14 -21 16 -5 16 11 1
15 6 11 12 -3 6 0 15 7 20 11 6 16 0 20 -24 5 -27 7 -23 8 20 0 30 -4 55 -11
59 -7 4 -8 3 -4 -5 5 -7 -1 -20 -15 -32 -25 -21 -44 -24 -55 -8 -4 7 -22 9
-48 5 -29 -4 -37 -3 -26 4 8 5 11 10 6 10 -5 0 -3 7 4 15 14 17 85 21 95 5 3
-5 11 -10 16 -10 6 0 7 5 3 11 -3 6 0 16 7 21 10 7 9 8 -6 4 -18 -5 -20 -1
-18 44 1 61 -13 106 -47 142 -14 15 -33 38 -43 52 -10 15 -24 26 -32 26 -8 0
-19 9 -25 20 -6 11 -17 20 -25 20 -8 0 -22 11 -31 25 -9 14 -24 25 -34 25 -9
0 -30 11 -45 24 -16 14 -45 33 -64 43 -20 10 -58 35 -85 56 -27 20 -57 37 -66
37 -10 0 -20 7 -24 15 -3 8 -10 15 -16 15 -5 0 -29 14 -52 30 -22 17 -46 30
-53 30 -7 0 -20 9 -30 20 -10 11 -22 20 -26 20 -11 0 -103 62 -107 72 -2 4
-10 8 -18 8 -8 0 -14 5 -14 10 0 6 -6 10 -12 10 -7 0 -27 14 -45 30 -18 17
-34 30 -37 30 -12 0 -81 53 -113 87 l-35 37 17 33 c10 18 23 33 28 33 6 0 2 7
-9 15 -19 14 -19 14 3 15 17 0 21 5 19 25 -4 28 11 23 24 -9 8 -18 9 -17 9 12
1 19 5 31 11 27 6 -3 10 1 10 9 0 9 7 16 15 16 9 0 12 6 9 15 -5 11 1 15 20
15 14 0 26 5 26 10 0 6 -12 10 -28 10 -33 0 -63 36 -34 42 9 2 32 -7 49 -20
l33 -24 10 26 c5 14 14 26 20 26 5 0 10 7 10 15 0 8 6 15 13 15 16 0 122 100
130 122 3 9 18 22 33 30 31 15 62 62 63 95 1 12 6 25 12 29 8 4 7 9 -2 15 -8
5 -16 8 -19 7 -3 0 -18 -3 -35 -5z m-414 -330 c-12 -20 -14 -14 -5 12 4 9 9
14 11 11 3 -2 0 -13 -6 -23z"/>
<path d="M4270 4319 c0 -5 5 -7 10 -4 6 3 10 8 10 11 0 2 -4 4 -10 4 -5 0 -10
-5 -10 -11z"/>
<path d="M1993 4063 c2 -16 11 -39 20 -53 9 -14 23 -41 31 -60 8 -19 29 -49
48 -67 45 -42 310 -253 318 -253 4 0 14 8 24 18 15 18 12 23 -76 99 -86 75
-130 119 -281 281 -63 68 -89 79 -84 35z"/>
<path d="M3370 4081 c0 -5 5 -13 10 -16 6 -3 10 -2 10 4 0 5 -4 13 -10 16 -5
3 -10 2 -10 -4z"/>
<path d="M1697 3647 c-3 -7 3 -13 14 -13 13 0 15 3 7 13 -6 7 -12 13 -13 13
-2 0 -5 -6 -8 -13z"/>
<path d="M1711 3594 c0 -11 3 -14 6 -6 3 7 2 16 -1 19 -3 4 -6 -2 -5 -13z"/>
<path d="M1731 3580 c0 -8 4 -22 9 -30 12 -18 12 -2 0 25 -6 13 -9 15 -9 5z"/>
<path d="M2128 3213 c6 -2 18 -2 25 0 6 3 1 5 -13 5 -14 0 -19 -2 -12 -5z"/>
<path d="M2432 3211 c-51 -9 -74 -27 -48 -37 12 -5 14 -9 6 -14 -7 -5 1 -19
25 -41 20 -19 44 -47 52 -64 9 -16 35 -50 58 -76 l42 -45 11 30 c9 22 9 32 1
37 -6 3 -14 28 -17 55 -3 27 -11 55 -19 62 -7 7 -13 22 -13 33 0 10 -5 19 -11
19 -5 0 -7 5 -4 10 3 6 -4 10 -15 10 -16 0 -20 5 -16 15 3 8 2 14 -2 14 -4 -1
-26 -5 -50 -8z"/>
<path d="M2797 3108 c-4 -29 -7 -91 -7 -138 0 -93 -14 -135 -46 -135 -11 -1
-31 -9 -44 -18 l-25 -18 -6 63 -6 63 -1 -78 -2 -79 31 26 c20 17 43 26 65 26
l34 0 -30 -31 c-16 -18 -30 -36 -30 -41 0 -5 -4 -6 -10 -3 -5 3 -10 2 -10 -4
0 -14 49 -70 73 -82 17 -10 19 -9 14 5 -4 10 -3 15 3 11 6 -4 15 7 21 24 6 17
14 29 19 26 14 -9 -18 417 -34 432 -2 2 -6 -20 -9 -49z"/>
<path d="M3265 2948 c28 -17 75 -47 105 -66 125 -79 230 -213 167 -212 -7 0
-6 4 3 10 8 5 10 10 4 10 -14 0 -214 -168 -214 -180 0 -6 -7 -10 -16 -10 -14
0 -14 -3 -4 -15 18 -21 6 -30 -14 -10 -18 19 -21 12 -6 -15 7 -13 5 -21 -8
-31 -15 -13 -16 -12 -4 3 8 9 9 19 4 22 -6 3 -29 -14 -53 -39 -24 -25 -49 -45
-55 -45 -6 0 -19 -9 -30 -21 -16 -17 -16 -22 -4 -30 11 -7 8 -8 -10 -4 -20 4
-29 -1 -45 -28 -11 -17 -25 -32 -31 -32 -15 0 -76 -47 -69 -53 7 -8 -16 -33
-25 -27 -4 3 -13 -2 -20 -10 -22 -26 18 -18 52 10 16 14 34 25 39 25 5 0 -7
-15 -28 -32 -21 -18 -43 -39 -49 -47 -6 -8 -16 -11 -23 -7 -7 5 -21 0 -33 -11
-21 -18 -21 -18 -15 2 7 20 7 20 -8 1 -8 -11 -15 -25 -15 -30 0 -6 5 -4 10 4
5 8 10 11 10 6 0 -5 9 -1 20 9 11 10 23 16 26 12 11 -11 -187 -197 -236 -222
-27 -14 -84 -34 -127 -46 -94 -26 -100 -30 -37 -22 27 3 64 6 82 6 22 0 28 3
20 9 -8 6 1 7 24 3 20 -3 45 -1 55 4 10 5 52 14 93 20 136 21 145 22 165 31
11 5 31 11 45 13 28 6 109 36 155 58 32 16 49 65 43 131 -2 20 0 34 4 32 5 -3
8 -13 8 -22 0 -21 49 -123 50 -103 0 9 8 5 21 -10 12 -13 25 -23 30 -22 4 2 5
-5 2 -14 -4 -10 -2 -14 4 -10 6 4 13 1 16 -7 12 -30 98 -405 100 -435 1 -20 8
-33 20 -37 10 -3 23 -17 29 -30 6 -13 15 -24 19 -24 13 0 3 -78 -11 -95 -10
-12 -11 -24 -1 -56 7 -21 9 -43 6 -48 -3 -5 5 -12 17 -14 l23 -4 -22 -2 c-13
0 -23 -6 -23 -12 0 -5 5 -7 12 -3 7 5 9 2 5 -8 -3 -9 -3 -19 1 -23 4 -4 8 -11
8 -16 1 -5 2 -14 3 -19 1 -11 83 -11 102 1 7 4 9 14 6 23 -4 9 -2 16 3 16 6 0
10 9 10 20 0 14 -7 20 -22 21 -22 1 -22 1 2 9 14 4 19 8 12 9 -7 1 -10 6 -7
11 3 6 1 10 -6 10 -7 0 -9 10 -7 25 3 15 1 25 -7 25 -35 0 -75 112 -54 151 11
21 11 20 -37 219 -44 185 -53 226 -64 307 -16 109 -8 162 30 198 17 16 30 34
30 39 0 6 24 41 53 79 53 68 118 165 149 224 l17 32 -69 61 -69 62 16 33 c31
66 -7 109 -162 181 -44 20 -87 40 -95 44 -8 4 -41 21 -72 38 -73 41 -88 41
-23 0z m-5 -536 c0 -4 -10 -13 -22 -21 -23 -14 -23 -14 -4 8 20 22 26 25 26
13z"/>
<path d="M2570 2905 c0 -8 5 -15 10 -15 6 0 10 7 10 15 0 8 -4 15 -10 15 -5 0
-10 -7 -10 -15z"/>
<path d="M2603 2860 c0 -36 2 -50 4 -32 2 17 2 47 0 65 -2 17 -4 3 -4 -33z"/>
<path d="M2628 2913 c7 -3 16 -2 19 1 4 3 -2 6 -13 5 -11 0 -14 -3 -6 -6z"/>
<path d="M4882 2855 c0 -16 2 -22 5 -12 2 9 2 23 0 30 -3 6 -5 -1 -5 -18z"/>
<path d="M2678 2645 c-21 -28 -25 -53 -5 -37 14 12 13 12 65 13 21 1 29 3 17
6 -11 3 -26 14 -33 24 -17 24 -23 24 -44 -6z"/>
<path d="M4810 2517 c0 -29 46 -55 64 -37 8 8 7 10 -4 6 -21 -8 -41 7 -43 32
-2 30 -17 28 -17 -1z"/>
<path d="M4840 2520 c0 -11 5 -20 10 -20 6 0 10 9 10 20 0 11 -4 20 -10 20 -5
0 -10 -9 -10 -20z"/>
<path d="M4872 2520 c0 -14 2 -19 5 -12 2 6 2 18 0 25 -3 6 -5 1 -5 -13z"/>
<path d="M3590 1376 c0 -14 4 -27 8 -30 5 -3 6 8 4 25 -5 35 -12 38 -12 5z"/>
<path d="M150 195 c0 -8 4 -15 10 -15 5 0 7 7 4 15 -4 8 -8 15 -10 15 -2 0 -4
-7 -4 -15z"/>
<path d="M323 195 c0 -10 4 -12 12 -5 7 5 16 6 20 2 5 -4 5 -1 1 6 -10 17 -33
15 -33 -3z"/>
<path d="M426 192 c-3 -5 1 -9 9 -9 8 0 12 4 9 9 -3 4 -7 8 -9 8 -2 0 -6 -4
-9 -8z"/>
<path d="M190 186 c0 -2 7 -7 16 -10 8 -3 12 -2 9 4 -6 10 -25 14 -25 6z"/>
<path d="M661 142 c0 -13 -5 -21 -10 -18 -5 4 -7 -4 -3 -16 5 -22 5 -22 14 2
5 13 7 31 5 39 -3 10 -5 7 -6 -7z"/>
<path d="M451 124 c0 -11 3 -14 6 -6 3 7 2 16 -1 19 -3 4 -6 -2 -5 -13z"/>
<path d="M427 111 c-4 -17 -3 -21 5 -13 5 5 8 16 6 23 -3 8 -7 3 -11 -10z"/>
<path d="M29 113 c13 -3 31 -11 38 -19 8 -8 20 -14 26 -14 7 0 6 4 -3 10 -8 5
-10 10 -5 11 20 1 -31 18 -55 17 l-25 -1 24 -4z"/>
<path d="M550 90 c-8 -5 -10 -10 -5 -10 6 0 17 5 25 10 8 5 11 10 5 10 -5 0
-17 -5 -25 -10z"/>
<path d="M120 80 c-8 -5 -11 -12 -8 -16 4 -3 14 1 23 10 18 17 9 21 -15 6z"/>
<path d="M381 77 c-1 -21 21 -18 27 4 3 12 2 12 -6 0 -8 -11 -10 -11 -15 0 -4
10 -6 8 -6 -4z"/>
<path d="M485 80 c3 -5 11 -10 16 -10 6 0 7 5 4 10 -3 6 -11 10 -16 10 -6 0
-7 -4 -4 -10z"/>
<path d="M595 80 c-3 -6 1 -7 9 -4 18 7 21 14 7 14 -6 0 -13 -4 -16 -10z"/>
<path d="M245 70 c-16 -7 -17 -9 -3 -9 9 -1 20 4 23 9 7 11 7 11 -20 0z"/>
<path d="M626 71 c-4 -5 3 -7 14 -4 23 6 26 13 6 13 -8 0 -17 -4 -20 -9z"/>
<path d="M288 63 c7 -3 16 -2 19 1 4 3 -2 6 -13 5 -11 0 -14 -3 -6 -6z"/>
</g>
</svg>
